<?xml version="1.0" encoding="utf-8"?>
<svg viewBox="7782 3320 14844 14844" width="150px" height="150px" fill-rule="evenodd" stroke-width="28.222" stroke-linejoin="round" xmlns="http://www.w3.org/2000/svg">
  <defs>
    <clipPath id="presentation_clip_path" clipPathUnits="userSpaceOnUse">
      <rect x="7782" y="3320" width="14844" height="14844"/>
    </clipPath>
  </defs>
  <g class="SlideGroup">
    <g>
      <g id="container-id1">
        <g id="id1" class="Slide" clip-path="url(#presentation_clip_path)">
          <g class="Page">
            <g class="com.sun.star.drawing.ClosedBezierShape">
              <g id="id3">
                <rect class="BoundingBox" stroke="none" fill="none" x="7782" y="3319" width="14845" height="14846"/>
                <path fill="rgb(35,110,151)" stroke="none" d="M 22626,17611 C 22626,17916 22378,18164 22073,18164 L 8335,18164 C 8030,18164 7782,17916 7782,17611 L 7782,3873 C 7782,3568 8030,3320 8335,3320 L 22073,3320 C 22378,3320 22626,3568 22626,3873 L 22626,17611 Z"/>
              </g>
            </g>
            <g class="com.sun.star.drawing.ClosedBezierShape">
              <g id="id4">
                <rect class="BoundingBox" stroke="none" fill="none" x="9299" y="5355" width="11812" height="10777"/>
                <path fill="rgb(255,255,255)" stroke="none" d="M 20092,10225 C 20056,10225 20021,10227 19987,10231 19619,8485 18319,7082 16632,6568 16614,6535 16595,6503 16576,6433 16480,6012 16199,5661 15825,5450 15427,5263 14936,5356 14655,5707 14444,5965 14421,6292 14608,6573 14795,6807 15193,6901 15380,6620 15497,6456 15380,6199 15170,6199 15053,6199 15006,6316 14959,6386 14865,6503 14772,6292 14772,6199 14772,6082 14795,5941 14889,5848 15170,5544 15638,5614 15895,5918 16246,6363 15989,6971 15497,7182 14959,7393 14397,7065 14102,6640 14032,6533 13987,6527 13945,6537 13528,6642 13119,6798 12738,7023 12376,7235 12044,7493 11749,7788 11092,8444 10621,9287 10423,10230 10388,10227 10353,10225 10317,10225 9755,10225 9299,10681 9299,11243 9299,11806 9755,12262 10317,12262 10353,12262 10388,12260 10423,12256 10889,14469 12853,16131 15205,16131 17556,16131 19520,14469 19987,12256 20021,12260 20056,12262 20092,12262 20654,12262 21110,11806 21110,11243 21110,10681 20654,10225 20092,10225 Z"/>
              </g>
            </g>
            <g class="com.sun.star.drawing.ClosedBezierShape">
              <g id="id5">
                <rect class="BoundingBox" stroke="none" fill="none" x="14013" y="8207" width="4279" height="4274"/>
                <path fill="rgb(35,110,151)" stroke="none" d="M 15843,11253 C 15810,11029 15664,10842 15465,10751 L 15356,8207 15025,8207 14915,10751 C 14840,10785 14773,10832 14716,10891 L 14198,10724 14013,11398 14552,11521 C 14598,11694 14713,11839 14865,11926 L 14841,12480 15539,12480 15516,11926 C 15582,11888 15641,11839 15691,11782 L 18219,12361 18291,12039 15843,11253 Z"/>
              </g>
            </g>
            <g class="com.sun.star.drawing.ClosedBezierShape">
              <g id="id6">
                <rect class="BoundingBox" stroke="none" fill="none" x="12616" y="8442" width="1642" height="2260"/>
                <path fill="rgb(35,110,151)" stroke="none" d="M 14257,9571 C 14257,9779 14223,9956 14147,10136 14072,10316 13978,10445 13847,10549 13716,10653 13588,10701 13437,10701 13286,10701 13157,10653 13026,10549 12895,10445 12801,10316 12726,10136 12650,9956 12616,9779 12616,9571 12616,9363 12650,9187 12726,9007 12801,8827 12895,8697 13026,8593 13157,8489 13286,8442 13437,8442 13588,8442 13716,8489 13847,8593 13978,8697 14072,8827 14147,9007 14223,9187 14257,9363 14257,9571 Z"/>
              </g>
            </g>
            <g class="com.sun.star.drawing.ClosedBezierShape">
              <g id="id7">
                <rect class="BoundingBox" stroke="none" fill="none" x="12907" y="8828" width="594" height="817"/>
                <path fill="rgb(255,255,255)" stroke="none" d="M 13499,9236 C 13499,9461 13367,9643 13203,9643 13040,9643 12907,9461 12907,9236 12907,9010 13040,8828 13203,8828 13367,8828 13499,9010 13499,9236 Z"/>
              </g>
            </g>
            <g class="com.sun.star.drawing.ClosedBezierShape">
              <g id="id8">
                <rect class="BoundingBox" stroke="none" fill="none" x="16151" y="8442" width="1642" height="2260"/>
                <path fill="rgb(35,110,151)" stroke="none" d="M 17792,9571 C 17792,9779 17758,9956 17682,10136 17607,10316 17513,10445 17382,10549 17251,10653 17123,10701 16972,10701 16821,10701 16692,10653 16561,10549 16430,10445 16336,10316 16261,10136 16185,9956 16151,9779 16151,9571 16151,9363 16185,9187 16261,9007 16336,8827 16430,8697 16561,8593 16692,8489 16821,8442 16972,8442 17123,8442 17251,8489 17382,8593 17513,8697 17607,8827 17682,9007 17758,9187 17792,9363 17792,9571 Z"/>
              </g>
            </g>
            <g class="com.sun.star.drawing.ClosedBezierShape">
              <g id="id9">
                <rect class="BoundingBox" stroke="none" fill="none" x="16442" y="8828" width="593" height="817"/>
                <path fill="rgb(255,255,255)" stroke="none" d="M 17034,9236 C 17034,9461 16902,9643 16738,9643 16575,9643 16442,9461 16442,9236 16442,9010 16575,8828 16738,8828 16902,8828 17034,9010 17034,9236 Z"/>
              </g>
            </g>
            <g class="com.sun.star.drawing.ClosedBezierShape">
              <g id="id10">
                <rect class="BoundingBox" stroke="none" fill="none" x="13870" y="13049" width="2669" height="1277"/>
                <path fill="rgb(35,110,151)" stroke="none" d="M 15204,14325 C 15941,14325 16538,13754 16538,13049 L 13870,13049 C 13870,13754 14467,14325 15204,14325 Z"/>
              </g>
            </g>
          </g>
        </g>
      </g>
    </g>
  </g>
</svg>
